<mxfile host="65bd71144e">
    <diagram id="A7fwIA8SNOv4WBn-th3X" name="Page-1">
        <mxGraphModel dx="2016" dy="1153" grid="1" gridSize="10" guides="1" tooltips="1" connect="1" arrows="1" fold="1" page="1" pageScale="1" pageWidth="850" pageHeight="1100" math="0" shadow="0">
            <root>
                <mxCell id="0"/>
                <mxCell id="1" parent="0"/>
                <mxCell id="7UAXsTEJduPwyFOiOoAr-6" value="" style="rounded=1;whiteSpace=wrap;html=1;fillColor=none;" parent="1" vertex="1">
                    <mxGeometry x="200" y="160" width="960" height="120" as="geometry"/>
                </mxCell>
                <mxCell id="7UAXsTEJduPwyFOiOoAr-1" value="Res 1" style="rounded=1;whiteSpace=wrap;html=1;" parent="1" vertex="1">
                    <mxGeometry x="440" y="200" width="80" height="40" as="geometry"/>
                </mxCell>
                <mxCell id="7UAXsTEJduPwyFOiOoAr-2" value="Res 2" style="rounded=1;whiteSpace=wrap;html=1;" parent="1" vertex="1">
                    <mxGeometry x="640" y="200" width="80" height="40" as="geometry"/>
                </mxCell>
                <mxCell id="7UAXsTEJduPwyFOiOoAr-3" value="Res 3" style="rounded=1;whiteSpace=wrap;html=1;" parent="1" vertex="1">
                    <mxGeometry x="840" y="200" width="80" height="40" as="geometry"/>
                </mxCell>
                <mxCell id="7UAXsTEJduPwyFOiOoAr-4" value="Res 4" style="rounded=1;whiteSpace=wrap;html=1;" parent="1" vertex="1">
                    <mxGeometry x="1040" y="200" width="80" height="40" as="geometry"/>
                </mxCell>
                <mxCell id="7UAXsTEJduPwyFOiOoAr-5" value="Conv 1" style="rounded=1;whiteSpace=wrap;html=1;" parent="1" vertex="1">
                    <mxGeometry x="240" y="200" width="80" height="40" as="geometry"/>
                </mxCell>
                <mxCell id="7UAXsTEJduPwyFOiOoAr-7" value="ResNet-101" style="text;html=1;strokeColor=none;fillColor=none;align=center;verticalAlign=middle;whiteSpace=wrap;rounded=0;" parent="1" vertex="1">
                    <mxGeometry x="220" y="130" width="90" height="30" as="geometry"/>
                </mxCell>
                <mxCell id="7UAXsTEJduPwyFOiOoAr-8" value="Frame t" style="ellipse;whiteSpace=wrap;html=1;fillColor=none;" parent="1" vertex="1">
                    <mxGeometry x="40" y="200" width="120" height="40" as="geometry"/>
                </mxCell>
                <mxCell id="7UAXsTEJduPwyFOiOoAr-9" value="" style="endArrow=classic;html=1;rounded=0;exitX=0.5;exitY=1;exitDx=0;exitDy=0;" parent="1" source="7UAXsTEJduPwyFOiOoAr-5" edge="1">
                    <mxGeometry width="50" height="50" relative="1" as="geometry">
                        <mxPoint x="350" y="400" as="sourcePoint"/>
                        <mxPoint x="280" y="360" as="targetPoint"/>
                    </mxGeometry>
                </mxCell>
                <mxCell id="7UAXsTEJduPwyFOiOoAr-10" value="" style="endArrow=classic;html=1;rounded=0;exitX=0.5;exitY=1;exitDx=0;exitDy=0;" parent="1" edge="1">
                    <mxGeometry width="50" height="50" relative="1" as="geometry">
                        <mxPoint x="479.58" y="240" as="sourcePoint"/>
                        <mxPoint x="479.58" y="360" as="targetPoint"/>
                    </mxGeometry>
                </mxCell>
                <mxCell id="7UAXsTEJduPwyFOiOoAr-11" value="" style="endArrow=classic;html=1;rounded=0;exitX=0.5;exitY=1;exitDx=0;exitDy=0;" parent="1" edge="1">
                    <mxGeometry width="50" height="50" relative="1" as="geometry">
                        <mxPoint x="679.58" y="240" as="sourcePoint"/>
                        <mxPoint x="679.58" y="360" as="targetPoint"/>
                    </mxGeometry>
                </mxCell>
                <mxCell id="7UAXsTEJduPwyFOiOoAr-12" value="" style="endArrow=classic;html=1;rounded=0;exitX=0.5;exitY=1;exitDx=0;exitDy=0;" parent="1" edge="1">
                    <mxGeometry width="50" height="50" relative="1" as="geometry">
                        <mxPoint x="879.5799999999999" y="240" as="sourcePoint"/>
                        <mxPoint x="879.5799999999999" y="360" as="targetPoint"/>
                    </mxGeometry>
                </mxCell>
                <mxCell id="7UAXsTEJduPwyFOiOoAr-13" value="" style="endArrow=classic;html=1;rounded=0;exitX=0.5;exitY=1;exitDx=0;exitDy=0;" parent="1" edge="1">
                    <mxGeometry width="50" height="50" relative="1" as="geometry">
                        <mxPoint x="1079.58" y="240" as="sourcePoint"/>
                        <mxPoint x="1079.58" y="360" as="targetPoint"/>
                    </mxGeometry>
                </mxCell>
                <mxCell id="7UAXsTEJduPwyFOiOoAr-14" value="" style="shape=cube;whiteSpace=wrap;html=1;boundedLbl=1;backgroundOutline=1;darkOpacity=0.05;darkOpacity2=0.1;fillColor=#f8cecc;direction=south;size=60;strokeColor=#b85450;" parent="1" vertex="1">
                    <mxGeometry x="240" y="340" width="80" height="160" as="geometry"/>
                </mxCell>
                <mxCell id="7UAXsTEJduPwyFOiOoAr-15" value="" style="shape=cube;whiteSpace=wrap;html=1;boundedLbl=1;backgroundOutline=1;darkOpacity=0.05;darkOpacity2=0.1;fillColor=#f8cecc;direction=south;size=60;strokeColor=#b85450;" parent="1" vertex="1">
                    <mxGeometry x="440" y="340" width="80" height="160" as="geometry"/>
                </mxCell>
                <mxCell id="7UAXsTEJduPwyFOiOoAr-16" value="" style="shape=cube;whiteSpace=wrap;html=1;boundedLbl=1;backgroundOutline=1;darkOpacity=0.05;darkOpacity2=0.1;fillColor=#f8cecc;direction=south;size=60;strokeColor=#b85450;" parent="1" vertex="1">
                    <mxGeometry x="640" y="340" width="80" height="160" as="geometry"/>
                </mxCell>
                <mxCell id="7UAXsTEJduPwyFOiOoAr-17" value="" style="shape=cube;whiteSpace=wrap;html=1;boundedLbl=1;backgroundOutline=1;darkOpacity=0.05;darkOpacity2=0.1;fillColor=#f8cecc;direction=south;size=60;strokeColor=#b85450;" parent="1" vertex="1">
                    <mxGeometry x="840" y="340" width="80" height="160" as="geometry"/>
                </mxCell>
                <mxCell id="7UAXsTEJduPwyFOiOoAr-18" value="" style="shape=cube;whiteSpace=wrap;html=1;boundedLbl=1;backgroundOutline=1;darkOpacity=0.05;darkOpacity2=0.1;fillColor=#f8cecc;direction=south;size=60;strokeColor=#b85450;" parent="1" vertex="1">
                    <mxGeometry x="1040" y="340" width="80" height="160" as="geometry"/>
                </mxCell>
                <mxCell id="7UAXsTEJduPwyFOiOoAr-19" value="Optical flow (t-1,t)" style="ellipse;whiteSpace=wrap;html=1;fillColor=none;" parent="1" vertex="1">
                    <mxGeometry x="40" y="640" width="120" height="40" as="geometry"/>
                </mxCell>
                <mxCell id="7UAXsTEJduPwyFOiOoAr-20" value="" style="endArrow=classic;html=1;rounded=0;exitX=1;exitY=0.5;exitDx=0;exitDy=0;" parent="1" source="7UAXsTEJduPwyFOiOoAr-19" edge="1">
                    <mxGeometry width="50" height="50" relative="1" as="geometry">
                        <mxPoint x="560" y="590" as="sourcePoint"/>
                        <mxPoint x="200" y="660" as="targetPoint"/>
                    </mxGeometry>
                </mxCell>
                <mxCell id="7UAXsTEJduPwyFOiOoAr-21" value="Attention map creator" style="rounded=1;whiteSpace=wrap;html=1;fillColor=none;" parent="1" vertex="1">
                    <mxGeometry x="200" y="630" width="960" height="60" as="geometry"/>
                </mxCell>
                <mxCell id="7UAXsTEJduPwyFOiOoAr-22" value="Annotated points" style="ellipse;whiteSpace=wrap;html=1;fillColor=none;" parent="1" vertex="1">
                    <mxGeometry x="40" y="720" width="120" height="40" as="geometry"/>
                </mxCell>
                <mxCell id="7UAXsTEJduPwyFOiOoAr-23" value="" style="endArrow=classic;html=1;rounded=0;exitX=1;exitY=0.5;exitDx=0;exitDy=0;entryX=0;entryY=0.75;entryDx=0;entryDy=0;" parent="1" source="7UAXsTEJduPwyFOiOoAr-22" target="7UAXsTEJduPwyFOiOoAr-21" edge="1">
                    <mxGeometry width="50" height="50" relative="1" as="geometry">
                        <mxPoint x="560" y="590" as="sourcePoint"/>
                        <mxPoint x="610" y="540" as="targetPoint"/>
                        <Array as="points">
                            <mxPoint x="180" y="740"/>
                            <mxPoint x="180" y="675"/>
                        </Array>
                    </mxGeometry>
                </mxCell>
                <mxCell id="7UAXsTEJduPwyFOiOoAr-29" value="" style="shape=cube;whiteSpace=wrap;html=1;boundedLbl=1;backgroundOutline=1;darkOpacity=0.05;darkOpacity2=0.1;fillColor=#dae8fc;direction=south;size=60;strokeColor=#6c8ebf;" parent="1" vertex="1">
                    <mxGeometry x="260" y="340" width="80" height="160" as="geometry"/>
                </mxCell>
                <mxCell id="7UAXsTEJduPwyFOiOoAr-30" value="" style="shape=cube;whiteSpace=wrap;html=1;boundedLbl=1;backgroundOutline=1;darkOpacity=0.05;darkOpacity2=0.1;fillColor=#dae8fc;direction=south;size=60;strokeColor=#6c8ebf;" parent="1" vertex="1">
                    <mxGeometry x="460" y="340" width="80" height="160" as="geometry"/>
                </mxCell>
                <mxCell id="7UAXsTEJduPwyFOiOoAr-31" value="" style="shape=cube;whiteSpace=wrap;html=1;boundedLbl=1;backgroundOutline=1;darkOpacity=0.05;darkOpacity2=0.1;fillColor=#dae8fc;direction=south;size=60;strokeColor=#6c8ebf;" parent="1" vertex="1">
                    <mxGeometry x="660" y="340" width="80" height="160" as="geometry"/>
                </mxCell>
                <mxCell id="7UAXsTEJduPwyFOiOoAr-32" value="" style="shape=cube;whiteSpace=wrap;html=1;boundedLbl=1;backgroundOutline=1;darkOpacity=0.05;darkOpacity2=0.1;fillColor=#dae8fc;direction=south;size=60;strokeColor=#6c8ebf;" parent="1" vertex="1">
                    <mxGeometry x="860" y="340" width="80" height="160" as="geometry"/>
                </mxCell>
                <mxCell id="7UAXsTEJduPwyFOiOoAr-33" value="" style="shape=cube;whiteSpace=wrap;html=1;boundedLbl=1;backgroundOutline=1;darkOpacity=0.05;darkOpacity2=0.1;fillColor=#dae8fc;direction=south;size=60;strokeColor=#6c8ebf;" parent="1" vertex="1">
                    <mxGeometry x="1060" y="340" width="80" height="160" as="geometry"/>
                </mxCell>
                <mxCell id="HzDly27s4qeI_roIQIkL-1" value="" style="endArrow=classic;html=1;rounded=0;exitX=0.083;exitY=0.022;exitDx=0;exitDy=0;exitPerimeter=0;" parent="1" source="7UAXsTEJduPwyFOiOoAr-21" edge="1">
                    <mxGeometry width="50" height="50" relative="1" as="geometry">
                        <mxPoint x="279.9999999999998" y="625.16" as="sourcePoint"/>
                        <mxPoint x="280" y="500" as="targetPoint"/>
                    </mxGeometry>
                </mxCell>
                <mxCell id="HzDly27s4qeI_roIQIkL-2" value="" style="endArrow=classic;html=1;rounded=0;exitX=0.083;exitY=0.022;exitDx=0;exitDy=0;exitPerimeter=0;" parent="1" edge="1">
                    <mxGeometry width="50" height="50" relative="1" as="geometry">
                        <mxPoint x="479.49999999999983" y="629.9999999999999" as="sourcePoint"/>
                        <mxPoint x="479.82" y="498.68" as="targetPoint"/>
                    </mxGeometry>
                </mxCell>
                <mxCell id="HzDly27s4qeI_roIQIkL-3" value="" style="endArrow=classic;html=1;rounded=0;exitX=0.083;exitY=0.022;exitDx=0;exitDy=0;exitPerimeter=0;" parent="1" edge="1">
                    <mxGeometry width="50" height="50" relative="1" as="geometry">
                        <mxPoint x="679.5" y="631.32" as="sourcePoint"/>
                        <mxPoint x="679.8200000000002" y="500.00000000000006" as="targetPoint"/>
                    </mxGeometry>
                </mxCell>
                <mxCell id="HzDly27s4qeI_roIQIkL-4" value="" style="endArrow=classic;html=1;rounded=0;exitX=0.083;exitY=0.022;exitDx=0;exitDy=0;exitPerimeter=0;" parent="1" edge="1">
                    <mxGeometry width="50" height="50" relative="1" as="geometry">
                        <mxPoint x="879.5" y="631.3200000000002" as="sourcePoint"/>
                        <mxPoint x="879.8200000000002" y="500" as="targetPoint"/>
                    </mxGeometry>
                </mxCell>
                <mxCell id="HzDly27s4qeI_roIQIkL-5" value="" style="endArrow=classic;html=1;rounded=0;exitX=0.083;exitY=0.022;exitDx=0;exitDy=0;exitPerimeter=0;" parent="1" edge="1">
                    <mxGeometry width="50" height="50" relative="1" as="geometry">
                        <mxPoint x="1079.5" y="631.3200000000002" as="sourcePoint"/>
                        <mxPoint x="1079.8200000000002" y="500" as="targetPoint"/>
                    </mxGeometry>
                </mxCell>
                <mxCell id="HzDly27s4qeI_roIQIkL-6" value="" style="endArrow=classic;html=1;rounded=0;" parent="1" edge="1">
                    <mxGeometry width="50" height="50" relative="1" as="geometry">
                        <mxPoint x="310" y="419.65999999999997" as="sourcePoint"/>
                        <mxPoint x="350" y="420" as="targetPoint"/>
                    </mxGeometry>
                </mxCell>
                <mxCell id="HzDly27s4qeI_roIQIkL-7" value="Conv" style="rounded=1;whiteSpace=wrap;html=1;" parent="1" vertex="1">
                    <mxGeometry x="350" y="400" width="50" height="40" as="geometry"/>
                </mxCell>
                <mxCell id="HzDly27s4qeI_roIQIkL-8" value="" style="endArrow=classic;html=1;rounded=0;" parent="1" edge="1">
                    <mxGeometry width="50" height="50" relative="1" as="geometry">
                        <mxPoint x="400.0000000000002" y="419.65999999999985" as="sourcePoint"/>
                        <mxPoint x="440.0000000000002" y="420" as="targetPoint"/>
                    </mxGeometry>
                </mxCell>
                <mxCell id="HzDly27s4qeI_roIQIkL-10" value="" style="endArrow=classic;html=1;rounded=0;" parent="1" edge="1">
                    <mxGeometry width="50" height="50" relative="1" as="geometry">
                        <mxPoint x="510.0000000000002" y="419.65999999999985" as="sourcePoint"/>
                        <mxPoint x="550.0000000000002" y="420" as="targetPoint"/>
                    </mxGeometry>
                </mxCell>
                <mxCell id="HzDly27s4qeI_roIQIkL-11" value="Conv" style="rounded=1;whiteSpace=wrap;html=1;" parent="1" vertex="1">
                    <mxGeometry x="550" y="400" width="50" height="40" as="geometry"/>
                </mxCell>
                <mxCell id="HzDly27s4qeI_roIQIkL-12" value="" style="endArrow=classic;html=1;rounded=0;" parent="1" edge="1">
                    <mxGeometry width="50" height="50" relative="1" as="geometry">
                        <mxPoint x="600.0000000000002" y="419.65999999999985" as="sourcePoint"/>
                        <mxPoint x="640.0000000000002" y="420" as="targetPoint"/>
                    </mxGeometry>
                </mxCell>
                <mxCell id="HzDly27s4qeI_roIQIkL-13" value="" style="endArrow=classic;html=1;rounded=0;" parent="1" edge="1">
                    <mxGeometry width="50" height="50" relative="1" as="geometry">
                        <mxPoint x="710.0000000000002" y="419.65999999999985" as="sourcePoint"/>
                        <mxPoint x="750.0000000000002" y="420" as="targetPoint"/>
                    </mxGeometry>
                </mxCell>
                <mxCell id="HzDly27s4qeI_roIQIkL-14" value="Conv" style="rounded=1;whiteSpace=wrap;html=1;" parent="1" vertex="1">
                    <mxGeometry x="750" y="400" width="50" height="40" as="geometry"/>
                </mxCell>
                <mxCell id="HzDly27s4qeI_roIQIkL-15" value="" style="endArrow=classic;html=1;rounded=0;" parent="1" edge="1">
                    <mxGeometry width="50" height="50" relative="1" as="geometry">
                        <mxPoint x="800.0000000000002" y="419.65999999999985" as="sourcePoint"/>
                        <mxPoint x="840" y="420" as="targetPoint"/>
                    </mxGeometry>
                </mxCell>
                <mxCell id="HzDly27s4qeI_roIQIkL-16" value="" style="endArrow=classic;html=1;rounded=0;" parent="1" edge="1">
                    <mxGeometry width="50" height="50" relative="1" as="geometry">
                        <mxPoint x="910" y="419.65999999999985" as="sourcePoint"/>
                        <mxPoint x="950" y="420" as="targetPoint"/>
                    </mxGeometry>
                </mxCell>
                <mxCell id="HzDly27s4qeI_roIQIkL-17" value="Conv" style="rounded=1;whiteSpace=wrap;html=1;" parent="1" vertex="1">
                    <mxGeometry x="950" y="400" width="50" height="40" as="geometry"/>
                </mxCell>
                <mxCell id="HzDly27s4qeI_roIQIkL-18" value="" style="endArrow=classic;html=1;rounded=0;" parent="1" edge="1">
                    <mxGeometry width="50" height="50" relative="1" as="geometry">
                        <mxPoint x="1000" y="419.65999999999985" as="sourcePoint"/>
                        <mxPoint x="1040" y="420" as="targetPoint"/>
                    </mxGeometry>
                </mxCell>
                <mxCell id="HzDly27s4qeI_roIQIkL-19" value="" style="endArrow=classic;html=1;rounded=0;" parent="1" target="7UAXsTEJduPwyFOiOoAr-6" edge="1">
                    <mxGeometry width="50" height="50" relative="1" as="geometry">
                        <mxPoint x="160" y="219.66" as="sourcePoint"/>
                        <mxPoint x="220" y="219.66" as="targetPoint"/>
                    </mxGeometry>
                </mxCell>
                <mxCell id="HzDly27s4qeI_roIQIkL-20" value="" style="endArrow=classic;html=1;rounded=0;entryX=0;entryY=0.5;entryDx=0;entryDy=0;" parent="1" target="7UAXsTEJduPwyFOiOoAr-1" edge="1">
                    <mxGeometry width="50" height="50" relative="1" as="geometry">
                        <mxPoint x="320" y="219.65999999999997" as="sourcePoint"/>
                        <mxPoint x="360" y="219.68615384615396" as="targetPoint"/>
                    </mxGeometry>
                </mxCell>
                <mxCell id="HzDly27s4qeI_roIQIkL-21" value="" style="endArrow=classic;html=1;rounded=0;entryX=0;entryY=0.5;entryDx=0;entryDy=0;" parent="1" edge="1">
                    <mxGeometry width="50" height="50" relative="1" as="geometry">
                        <mxPoint x="520" y="219.82999999999996" as="sourcePoint"/>
                        <mxPoint x="640" y="220.17" as="targetPoint"/>
                    </mxGeometry>
                </mxCell>
                <mxCell id="HzDly27s4qeI_roIQIkL-22" value="" style="endArrow=classic;html=1;rounded=0;entryX=0;entryY=0.5;entryDx=0;entryDy=0;" parent="1" edge="1">
                    <mxGeometry width="50" height="50" relative="1" as="geometry">
                        <mxPoint x="720" y="219.70999999999992" as="sourcePoint"/>
                        <mxPoint x="840" y="220.04999999999995" as="targetPoint"/>
                    </mxGeometry>
                </mxCell>
                <mxCell id="HzDly27s4qeI_roIQIkL-23" value="" style="endArrow=classic;html=1;rounded=0;entryX=0;entryY=0.5;entryDx=0;entryDy=0;" parent="1" edge="1">
                    <mxGeometry width="50" height="50" relative="1" as="geometry">
                        <mxPoint x="920" y="219.70999999999992" as="sourcePoint"/>
                        <mxPoint x="1040" y="220.04999999999995" as="targetPoint"/>
                    </mxGeometry>
                </mxCell>
                <mxCell id="HzDly27s4qeI_roIQIkL-26" value="" style="endArrow=classic;html=1;rounded=0;" parent="1" edge="1">
                    <mxGeometry width="50" height="50" relative="1" as="geometry">
                        <mxPoint x="1110" y="419.65999999999985" as="sourcePoint"/>
                        <mxPoint x="1150" y="420" as="targetPoint"/>
                    </mxGeometry>
                </mxCell>
                <mxCell id="HzDly27s4qeI_roIQIkL-27" value="Final block" style="rounded=1;whiteSpace=wrap;html=1;" parent="1" vertex="1">
                    <mxGeometry x="1150" y="400" width="100" height="40" as="geometry"/>
                </mxCell>
                <mxCell id="HzDly27s4qeI_roIQIkL-28" value="" style="endArrow=classic;html=1;rounded=0;" parent="1" edge="1">
                    <mxGeometry width="50" height="50" relative="1" as="geometry">
                        <mxPoint x="1250" y="419.70999999999987" as="sourcePoint"/>
                        <mxPoint x="1290" y="420.05" as="targetPoint"/>
                    </mxGeometry>
                </mxCell>
                <mxCell id="HzDly27s4qeI_roIQIkL-29" value="Output&lt;br&gt;segmentation of frame t" style="ellipse;whiteSpace=wrap;html=1;fillColor=none;" parent="1" vertex="1">
                    <mxGeometry x="1290" y="390" width="120" height="60" as="geometry"/>
                </mxCell>
                <mxCell id="pg6RTKum3gGQVXrZMaVo-1" value="" style="rounded=0;whiteSpace=wrap;html=1;" parent="1" vertex="1">
                    <mxGeometry x="120" y="1160" width="10" height="160" as="geometry"/>
                </mxCell>
                <mxCell id="pg6RTKum3gGQVXrZMaVo-2" value="" style="rounded=0;whiteSpace=wrap;html=1;" parent="1" vertex="1">
                    <mxGeometry x="200" y="1160" width="10" height="160" as="geometry"/>
                </mxCell>
                <mxCell id="pg6RTKum3gGQVXrZMaVo-8" value="" style="rounded=0;whiteSpace=wrap;html=1;" parent="1" vertex="1">
                    <mxGeometry x="320" y="1180" width="20" height="120" as="geometry"/>
                </mxCell>
                <mxCell id="pg6RTKum3gGQVXrZMaVo-9" value="" style="rounded=0;whiteSpace=wrap;html=1;" parent="1" vertex="1">
                    <mxGeometry x="400" y="1180" width="20" height="120" as="geometry"/>
                </mxCell>
                <mxCell id="pg6RTKum3gGQVXrZMaVo-10" value="" style="rounded=0;whiteSpace=wrap;html=1;" parent="1" vertex="1">
                    <mxGeometry x="480" y="1200" width="30" height="80" as="geometry"/>
                </mxCell>
                <mxCell id="pg6RTKum3gGQVXrZMaVo-11" value="" style="rounded=0;whiteSpace=wrap;html=1;" parent="1" vertex="1">
                    <mxGeometry x="560" y="1200" width="30" height="80" as="geometry"/>
                </mxCell>
                <mxCell id="pg6RTKum3gGQVXrZMaVo-12" value="" style="rounded=0;whiteSpace=wrap;html=1;" parent="1" vertex="1">
                    <mxGeometry x="640" y="1220" width="40" height="40" as="geometry"/>
                </mxCell>
                <mxCell id="pg6RTKum3gGQVXrZMaVo-13" value="" style="rounded=0;whiteSpace=wrap;html=1;" parent="1" vertex="1">
                    <mxGeometry x="720" y="1220" width="40" height="40" as="geometry"/>
                </mxCell>
                <mxCell id="2" value="" style="rounded=0;whiteSpace=wrap;html=1;" vertex="1" parent="1">
                    <mxGeometry x="120" y="1600" width="10" height="160" as="geometry"/>
                </mxCell>
                <mxCell id="3" value="" style="rounded=0;whiteSpace=wrap;html=1;" vertex="1" parent="1">
                    <mxGeometry x="200" y="1600" width="10" height="160" as="geometry"/>
                </mxCell>
                <mxCell id="4" value="" style="rounded=0;whiteSpace=wrap;html=1;" vertex="1" parent="1">
                    <mxGeometry x="200" y="1800" width="20" height="120" as="geometry"/>
                </mxCell>
                <mxCell id="5" value="" style="rounded=0;whiteSpace=wrap;html=1;" vertex="1" parent="1">
                    <mxGeometry x="280" y="1800" width="20" height="120" as="geometry"/>
                </mxCell>
                <mxCell id="6" value="" style="rounded=0;whiteSpace=wrap;html=1;" vertex="1" parent="1">
                    <mxGeometry x="280" y="1960" width="30" height="80" as="geometry"/>
                </mxCell>
                <mxCell id="7" value="" style="rounded=0;whiteSpace=wrap;html=1;" vertex="1" parent="1">
                    <mxGeometry x="360" y="1960" width="30" height="80" as="geometry"/>
                </mxCell>
                <mxCell id="8" value="" style="rounded=0;whiteSpace=wrap;html=1;" vertex="1" parent="1">
                    <mxGeometry x="360" y="2080" width="40" height="40" as="geometry"/>
                </mxCell>
                <mxCell id="9" value="" style="rounded=0;whiteSpace=wrap;html=1;" vertex="1" parent="1">
                    <mxGeometry x="440" y="2080" width="40" height="40" as="geometry"/>
                </mxCell>
                <mxCell id="10" value="" style="rounded=0;whiteSpace=wrap;html=1;" vertex="1" parent="1">
                    <mxGeometry x="440" y="2160" width="50" height="20" as="geometry"/>
                </mxCell>
                <mxCell id="11" value="" style="rounded=0;whiteSpace=wrap;html=1;" vertex="1" parent="1">
                    <mxGeometry x="560" y="2160" width="100" height="20" as="geometry"/>
                </mxCell>
                <mxCell id="12" value="" style="rounded=0;whiteSpace=wrap;html=1;" vertex="1" parent="1">
                    <mxGeometry x="720" y="2160" width="100" height="20" as="geometry"/>
                </mxCell>
            </root>
        </mxGraphModel>
    </diagram>
</mxfile>